<?xml version="1.0" encoding="UTF-8" standalone="no"?>
<!DOCTYPE svg PUBLIC "-//W3C//DTD SVG 1.1//EN" "http://www.w3.org/Graphics/SVG/1.1/DTD/svg11.dtd">
<svg width="100%" height="100%" viewBox="0 0 1333 1333" version="1.1" xmlns="http://www.w3.org/2000/svg" xmlns:xlink="http://www.w3.org/1999/xlink" xml:space="preserve" xmlns:serif="http://www.serif.com/" style="fill-rule:evenodd;clip-rule:evenodd;stroke-linejoin:round;stroke-miterlimit:2;">
    <g id="Artboard1" transform="matrix(1,0,0,1,-226.623,6.73358)">
        <rect x="226.623" y="-6.734" width="1332.45" height="1332.45" style="fill:none;"/>
        <g transform="matrix(2.18096,0,0,2.18096,-930.941,-583.98)">
            <path d="M803.409,380.279C770.261,412.407 730.856,492.516 716.346,545.117C702.981,593.563 705.944,656.155 716.346,695.885C725.428,730.572 744.776,765.239 778.757,783.498C808.85,799.667 849.886,807.539 873.39,807.539C929.733,807.539 955.867,792.649 965.239,785.234C981.471,772.393 923.82,781.898 885.846,709.121C862.613,664.596 862.721,624.359 873.39,571.45C877.828,549.441 894.932,502.937 919.785,458.62C942.894,417.414 981.497,385.434 981.497,374.106C981.497,357.289 938.466,351.54 915.232,352.346C885.55,353.374 830.996,353.539 803.409,380.279Z" style="fill:rgb(149,92,34);"/>
        </g>
        <g transform="matrix(2.18096,0,0,2.18096,-942.801,-599.871)">
            <path d="M803.409,380.279C770.261,412.407 730.856,492.516 716.346,545.117C702.981,593.563 705.944,656.155 716.346,695.885C725.428,730.572 744.776,765.239 778.757,783.498C808.85,799.667 849.886,807.539 873.39,807.539C929.733,807.539 955.867,792.649 965.239,785.234C981.471,772.393 923.82,781.898 885.846,709.121C862.613,664.596 862.721,624.359 873.39,571.45C877.828,549.441 894.932,502.937 919.785,458.62C942.894,417.414 981.497,385.434 981.497,374.106C981.497,357.289 938.466,351.54 915.232,352.346C885.55,353.374 830.996,353.539 803.409,380.279Z" style="fill:rgb(254,133,0);"/>
            <path d="M797.887,499.383C797.64,499.658 796.218,501.242 793.714,501.382C791.222,501.522 789.622,500.114 789.344,499.869C784.169,495.315 775.22,489.154 764.939,500.689C764.116,501.612 763.116,502.908 762.47,503.923C761.734,505.078 761.791,505.146 760.692,505.962C760.399,506.179 758.711,507.432 756.269,507.082C753.747,506.72 752.453,504.977 752.228,504.675C751.881,504.207 749.732,501.311 752.266,497.397C759.95,485.524 777.334,473.019 797.408,490.832C797.685,491.078 799.27,492.484 799.412,495.008C799.553,497.528 798.135,499.107 797.887,499.383Z" style="fill:rgb(83,44,0);"/>
            <g transform="matrix(1,0,0,1,56.5137,-6.53675)">
                <path d="M797.887,499.383C797.64,499.658 796.218,501.242 793.714,501.382C791.222,501.522 789.622,500.114 789.344,499.869C784.169,495.315 775.22,489.154 764.939,500.689C764.116,501.612 763.116,502.908 762.47,503.923C761.734,505.078 761.791,505.146 760.692,505.962C758.711,507.432 756.63,507.134 756.269,507.082C755.896,507.029 753.747,506.72 752.228,504.675C751.881,504.207 749.732,501.311 752.266,497.397C759.95,485.524 777.334,473.019 797.408,490.832C797.685,491.078 799.27,492.484 799.412,495.008C799.553,497.528 798.135,499.107 797.887,499.383Z" style="fill:rgb(83,44,0);"/>
            </g>
            <path d="M771.932,526.623L844.834,517.496C844.834,517.496 857.535,560.485 816.513,566.356C775.49,572.227 771.932,526.623 771.932,526.623Z" style="fill:rgb(83,44,0);"/>
            <path d="M771.179,520.614C795.806,517.629 820.407,514.427 845.034,511.443C845.215,511.421 846.696,511.604 847.767,512.197C848.03,512.343 849.494,513.153 850.326,514.943C850.934,516.25 854.435,529.15 851.736,542.291C847.189,564.431 828.816,571.839 812.696,572.833C781.351,574.768 768.941,548.677 766.17,529.433C765.845,527.177 765.803,526.102 766.08,525.061C766.631,523 768.091,521.929 768.351,521.739C768.905,521.333 769.149,521.235 769.226,521.205C770.176,520.827 770.226,520.993 771.179,520.614ZM778.82,531.357C780.396,538.657 784.443,550.534 794.095,556.677C795.43,557.526 803.539,563.087 818.93,559.778C826.523,558.146 840.824,553.276 840.633,531.46C840.579,525.207 839.284,520.205 839.037,519.252L844.726,517.659L778.82,531.357Z" style="fill:rgb(83,44,0);"/>
        </g>
    </g>
</svg>
